<svg xmlns="http://www.w3.org/2000/svg" width="256" height="256" viewBox="0 0 100 100"><rect width="100" height="100" rx="20" fill="#7ed321"></rect><path d="M22.13 43.95L22.13 43.95Q22.27 44.17 22.38 44.53Q22.49 44.89 22.49 45.31L22.49 45.31Q22.49 46.07 22.16 46.41Q21.83 46.75 21.27 46.75L21.27 46.75L19.01 46.75L19.01 56.05Q18.79 56.11 18.33 56.17Q17.87 56.23 17.39 56.23L17.39 56.23Q16.33 56.23 15.92 55.87Q15.51 55.51 15.51 54.57L15.51 54.57L15.51 46.75L12.49 46.75Q12.35 46.53 12.24 46.17Q12.13 45.81 12.13 45.39L12.13 45.39Q12.13 44.63 12.46 44.29Q12.79 43.95 13.35 43.95L13.35 43.95L22.13 43.95ZM26.05 56.13L26.05 56.13Q25.19 56.13 24.69 55.63Q24.19 55.13 24.19 54.27L24.19 54.27L24.19 43.91Q24.43 43.87 24.89 43.80Q25.35 43.73 25.81 43.73L25.81 43.73Q26.81 43.73 27.25 44.07Q27.69 44.41 27.69 45.39L27.69 45.39L27.69 53.31L32.27 53.31Q32.41 53.53 32.53 53.89Q32.65 54.25 32.65 54.67L32.65 54.67Q32.65 55.41 32.33 55.77Q32.01 56.13 31.45 56.13L31.45 56.13L26.05 56.13ZM46.51 49.99L46.51 49.99Q46.51 51.55 46.03 52.76Q45.55 53.97 44.70 54.78Q43.85 55.59 42.69 56.01Q41.53 56.43 40.17 56.43L40.17 56.43Q38.81 56.43 37.65 56.01Q36.49 55.59 35.65 54.77Q34.81 53.95 34.33 52.75Q33.85 51.55 33.85 49.99L33.85 49.99Q33.85 48.43 34.34 47.23Q34.83 46.03 35.68 45.22Q36.53 44.41 37.68 43.99Q38.83 43.57 40.17 43.57L40.17 43.57Q41.51 43.57 42.66 43.99Q43.81 44.41 44.67 45.22Q45.53 46.03 46.02 47.23Q46.51 48.43 46.51 49.99ZM42.91 49.99L42.91 49.99Q42.91 48.19 42.17 47.29Q41.43 46.39 40.17 46.39L40.17 46.39Q38.95 46.39 38.20 47.28Q37.45 48.17 37.45 49.99L37.45 49.99Q37.45 51.81 38.19 52.71Q38.93 53.61 40.19 53.61L40.19 53.61Q41.43 53.61 42.17 52.71Q42.91 51.81 42.91 49.99ZM54.11 46.91L54.11 46.91Q54.33 46.81 54.80 46.68Q55.27 46.55 55.75 46.55L55.75 46.55Q56.59 46.55 57.15 46.80Q57.71 47.05 57.83 47.53L57.83 47.53Q58.05 48.35 58.24 49.06Q58.43 49.77 58.61 50.42Q58.79 51.07 58.96 51.71Q59.13 52.35 59.29 53.05L59.29 53.05L59.39 53.05Q59.57 51.83 59.71 50.72Q59.85 49.61 59.97 48.54Q60.09 47.47 60.21 46.42Q60.33 45.37 60.45 44.29L60.45 44.29Q61.19 43.87 62.03 43.87L62.03 43.87Q62.77 43.87 63.31 44.19Q63.85 44.51 63.85 45.27L63.85 45.27Q63.85 45.71 63.76 46.52Q63.67 47.33 63.52 48.33Q63.37 49.33 63.17 50.43Q62.97 51.53 62.75 52.53Q62.53 53.53 62.30 54.34Q62.07 55.15 61.87 55.59L61.87 55.59Q61.57 55.87 60.89 56.05Q60.21 56.23 59.49 56.23L59.49 56.23Q58.55 56.23 57.90 55.98Q57.25 55.73 57.11 55.27L57.11 55.27Q56.85 54.47 56.55 53.37Q56.25 52.27 55.91 50.95L55.91 50.95Q55.63 52.25 55.33 53.49Q55.03 54.73 54.79 55.59L54.79 55.59Q54.49 55.87 53.89 56.05Q53.29 56.23 52.57 56.23L52.57 56.23Q51.67 56.23 50.94 55.98Q50.21 55.73 49.99 55.27L49.99 55.27Q49.81 54.91 49.60 54.20Q49.39 53.49 49.17 52.58Q48.95 51.67 48.72 50.61Q48.49 49.55 48.30 48.49Q48.11 47.43 47.95 46.42Q47.79 45.41 47.71 44.57L47.71 44.57Q47.99 44.31 48.49 44.09Q48.99 43.87 49.57 43.87L49.57 43.87Q50.33 43.87 50.82 44.20Q51.31 44.53 51.43 45.31L51.43 45.31Q51.75 47.35 51.96 48.71Q52.17 50.07 52.30 50.94Q52.43 51.81 52.49 52.29Q52.55 52.77 52.61 53.05L52.61 53.05L52.71 53.05Q52.89 52.25 53.05 51.57Q53.21 50.89 53.38 50.20Q53.55 49.51 53.73 48.72Q53.91 47.93 54.11 46.91ZM72.89 54.93L72.53 53.55L68.91 53.55Q68.71 54.27 68.56 54.89Q68.41 55.51 68.27 56.05L68.27 56.05Q67.99 56.15 67.68 56.22Q67.37 56.29 66.93 56.29L66.93 56.29Q65.91 56.29 65.42 55.94Q64.93 55.59 64.93 54.97L64.93 54.97Q64.93 54.69 65.01 54.41Q65.09 54.13 65.19 53.75L65.19 53.75Q65.33 53.21 65.58 52.40Q65.83 51.59 66.13 50.66Q66.43 49.73 66.77 48.76Q67.11 47.79 67.41 46.92Q67.71 46.05 67.96 45.36Q68.21 44.67 68.35 44.31L68.35 44.31Q68.69 44.11 69.38 43.93Q70.07 43.75 70.77 43.75L70.77 43.75Q71.77 43.75 72.54 44.04Q73.31 44.33 73.53 44.97L73.53 44.97Q73.89 45.99 74.31 47.37Q74.73 48.75 75.15 50.22Q75.57 51.69 75.97 53.12Q76.37 54.55 76.67 55.65L76.67 55.65Q76.43 55.93 75.95 56.10Q75.47 56.27 74.81 56.27L74.81 56.27Q73.83 56.27 73.45 55.95Q73.07 55.63 72.89 54.93L72.89 54.93ZM70.87 46.89L70.75 46.89Q70.47 47.71 70.13 48.71Q69.79 49.71 69.47 50.85L69.47 50.85L71.95 50.85Q71.67 49.71 71.38 48.70Q71.09 47.69 70.87 46.89L70.87 46.89ZM87.83 45.71L87.83 45.71Q87.83 46.23 87.57 46.61Q87.31 46.99 86.97 47.21L86.97 47.21Q86.45 46.87 85.86 46.63Q85.27 46.39 84.49 46.39L84.49 46.39Q82.95 46.39 82.13 47.34Q81.31 48.29 81.31 50.01L81.31 50.01Q81.31 51.79 82.20 52.70Q83.09 53.61 84.67 53.61L84.67 53.61Q85.49 53.61 86.06 53.39Q86.63 53.17 87.15 52.89L87.15 52.89Q87.49 53.17 87.68 53.56Q87.87 53.95 87.87 54.47L87.87 54.47Q87.87 54.93 87.63 55.31Q87.39 55.69 86.81 55.95L86.81 55.95Q86.45 56.11 85.79 56.27Q85.13 56.43 84.19 56.43L84.19 56.43Q82.83 56.43 81.65 56.05Q80.47 55.67 79.59 54.89Q78.71 54.11 78.21 52.90Q77.71 51.69 77.71 50.01L77.71 50.01Q77.71 48.45 78.20 47.25Q78.69 46.05 79.54 45.23Q80.39 44.41 81.53 43.99Q82.67 43.57 83.97 43.57L83.97 43.57Q85.81 43.57 86.82 44.17Q87.83 44.77 87.83 45.71Z" fill="#fff"></path></svg>